<svg width="74" height="116" viewBox="0 0 74 116" fill="none" xmlns="http://www.w3.org/2000/svg">
<mask id="mask0_2_41" style="mask-type:luminance" maskUnits="userSpaceOnUse" x="0" y="0" width="74" height="116">
<path d="M70.3334 2.29999C58.5334 8.79999 44.1333 14.8 31.6333 22.5C24.5333 26.7 18.0333 31.2 12.7333 36.4C5.83334 43 3.53334 51.2 2.73334 59.8C2.83334 58.4 3.03335 57 3.33335 55.6C3.13335 56.8 2.93335 58 2.83335 59.2C2.73335 59.9 2.63336 60.7 2.53336 61.5C2.63336 61.3 2.63334 61.1 2.63334 61C2.63334 61.2 2.53336 61.5 2.53336 61.7C2.53336 61.9 2.53336 62.1 2.53336 62.3C1.73336 72.1 -3.96666 108.5 7.73334 114.6C8.83334 115.2 10.2333 115.5 11.7333 115.5C24.3333 116.9 54.9333 94.6 63.1333 86.1C64.8333 84.3 66.2334 82.5 67.4334 80.5C67.5334 80.3 67.6334 80.2 67.8334 80C76.2334 66.2 73.3334 47.2 73.3334 31.9H73.2333L38.0334 52.2V72.8V72.9L48.2333 67V73.6L31.3334 83.4V48.2L73.1333 24.1V0.799988C72.1333 1.29999 71.2334 1.79999 70.3334 2.29999Z" fill="white"/>
</mask>
<g mask="url(#mask0_2_41)">
<path d="M307.559 -1035.81L1279.14 134.225L109.108 1105.81L-862.472 -64.2253L307.559 -1035.81Z" fill="url(#paint0_linear_2_41)"/>
</g>
<defs>
<linearGradient id="paint0_linear_2_41" x1="-62.4117" y1="-65.6479" x2="71.874" y2="96.0663" gradientUnits="userSpaceOnUse">
<stop stop-color="#FF5859"/>
<stop offset="0.635714" stop-color="#FF432F"/>
<stop offset="1" stop-color="#FF3718"/>
</linearGradient>
</defs>
</svg>
