<svg width="403" height="19" viewBox="0 0 403 19" fill="none" xmlns="http://www.w3.org/2000/svg">
<path d="M1.44 18.5776H0V0.598633H1.44V18.5776Z" fill="#201D1E"/>
<path d="M6.7041 18.5778V0.598759H8.8181C11.6061 4.90676 18.1291 14.8908 19.2531 16.8438H19.2801C19.1241 14.2648 19.1491 11.6088 19.1491 8.67976V0.598759H20.6081V18.5778H18.6491C15.9941 14.4308 9.3601 4.02176 8.0841 2.04176H8.0591C8.1871 4.38776 8.1621 7.03076 8.1621 10.2918V18.5778H6.7041Z" fill="#201D1E"/>
<path d="M25.8679 18.5778V0.598759H27.9819C30.7699 4.90676 37.2929 14.8908 38.4169 16.8438H38.4439C38.2879 14.2648 38.3129 11.6088 38.3129 8.67976V0.598759H39.7719V18.5778H37.8129C35.1579 14.4308 28.5239 4.02176 27.2479 2.04176H27.2229C27.3509 4.38776 27.3259 7.03076 27.3259 10.2918V18.5778H25.8679Z" fill="#201D1E"/>
<path d="M45.2443 9.51059C45.2443 13.6326 47.5143 17.5106 51.8053 17.5106C56.4293 17.5106 58.3653 13.7286 58.3653 9.48659C58.3653 5.31659 56.1733 1.66559 51.8543 1.66559C47.2603 1.66559 45.2443 5.46459 45.2443 9.51059ZM59.9083 9.46159C59.9083 14.3686 57.2803 18.8346 51.7263 18.8346C46.6543 18.8346 43.7003 14.7506 43.7003 9.58759C43.7003 4.49859 46.5603 0.340595 51.9073 0.340595C56.8463 0.340595 59.9083 4.2156 59.9083 9.46159Z" fill="#201D1E"/>
<path d="M68.3489 18.5778L61.6789 0.598759H63.2249L66.7009 9.97576C67.6979 12.6938 68.8169 15.6798 69.2039 17.2028H69.2559C69.6399 15.8598 70.8609 12.7208 71.8599 10.0778L75.4649 0.598759H76.9809L70.0559 18.5778H68.3489Z" fill="#201D1E"/>
<path d="M87.0842 11.0809C85.0972 5.77188 84.0742 3.20688 83.7132 1.98988H83.6872C83.2502 3.36088 82.1002 6.53788 80.4942 11.0809H87.0842ZM79.9992 12.4059L77.7322 18.5779H76.2682L82.8582 0.597881H84.5722L91.4443 18.5779H89.8742L87.5552 12.4059H79.9992Z" fill="#201D1E"/>
<path d="M96.0208 1.92321H89.9978V0.598209H103.535V1.92321H97.4868V18.5772H96.0208V1.92321Z" fill="#201D1E"/>
<path d="M107.635 18.5776H106.195V0.598633H107.635V18.5776Z" fill="#201D1E"/>
<path d="M112.899 18.5778V0.598759H115.013C117.801 4.90676 124.324 14.8908 125.448 16.8438H125.475C125.319 14.2648 125.344 11.6088 125.344 8.67976V0.598759H126.803V18.5778H124.844C122.189 14.4308 115.555 4.02176 114.279 2.04176H114.254C114.382 4.38776 114.357 7.03076 114.357 10.2918V18.5778H112.899Z" fill="#201D1E"/>
<path d="M145.714 18.5778H144.521C144.419 18.3648 144.365 17.4468 144.339 15.7248C143.689 16.9598 142.27 18.7858 138.546 18.7858C133.382 18.7858 130.731 14.8548 130.731 9.74377C130.731 4.37477 133.563 0.340767 138.837 0.340767C142.732 0.340767 145.304 2.38277 145.866 5.69077H144.426C143.664 3.17677 141.909 1.66277 138.786 1.66277C134.308 1.66277 132.275 5.14777 132.275 9.66477C132.275 13.7528 134.236 17.4618 138.61 17.4618C143.081 17.4618 144.326 14.5478 144.326 10.6168V10.4128H138.561V9.08777H145.714V18.5778Z" fill="#201D1E"/>
<path d="M165.793 11.0809C163.806 5.77188 162.783 3.20688 162.422 1.98988H162.396C161.959 3.36088 160.809 6.53788 159.203 11.0809H165.793ZM158.708 12.4059L156.441 18.5779H154.977L161.567 0.597881H163.281L170.153 18.5779H168.583L166.264 12.4059H158.708Z" fill="#201D1E"/>
<path d="M186.634 13.7587C185.789 16.6207 183.674 18.7847 179.857 18.7847C174.684 18.7847 171.961 14.6767 171.961 9.61467C171.961 4.75967 174.636 0.340668 179.886 0.340668C183.785 0.340668 186.071 2.51267 186.659 5.51767H185.219C184.406 3.20167 182.902 1.66267 179.809 1.66267C175.366 1.66267 173.506 5.72167 173.506 9.58667C173.506 13.4227 175.338 17.4617 179.912 17.4617C182.831 17.4617 184.306 15.9427 185.194 13.7587H186.634Z" fill="#201D1E"/>
<path d="M191.968 8.88164H196.285C199.422 8.88164 200.873 7.70764 200.873 5.36364C200.873 3.17064 199.445 1.92164 196.665 1.92164H191.968V8.88164ZM191.968 10.2046V18.5776H190.504V0.598637H196.982C200.534 0.598637 202.415 2.50464 202.415 5.32864C202.415 7.61764 201.054 9.10364 199.066 9.54164C200.895 9.97564 202.13 11.1776 202.13 14.2376V14.9356C202.13 16.1926 202.03 17.8806 202.362 18.5776H200.9C200.567 17.8066 200.641 16.3706 200.641 14.8216V14.3636C200.641 11.4306 199.776 10.2046 196.346 10.2046H191.968Z" fill="#201D1E"/>
<path d="M207.131 9.51059C207.131 13.6326 209.401 17.5106 213.692 17.5106C218.316 17.5106 220.252 13.7286 220.252 9.48659C220.252 5.31659 218.06 1.66559 213.741 1.66559C209.147 1.66559 207.131 5.46459 207.131 9.51059ZM221.795 9.46159C221.795 14.3686 219.167 18.8346 213.613 18.8346C208.541 18.8346 205.587 14.7506 205.587 9.58759C205.587 4.49859 208.447 0.340595 213.794 0.340595C218.733 0.340595 221.795 4.2156 221.795 9.46159Z" fill="#201D1E"/>
<path d="M225.828 13.7393C226.364 16.1163 227.95 17.5153 230.885 17.5153C234.148 17.5153 235.398 15.8893 235.398 13.9503C235.398 11.9333 234.5 10.6883 230.563 9.7173C226.738 8.7633 225.104 7.5183 225.104 4.9273C225.104 2.5483 226.839 0.341301 230.7 0.341301C234.673 0.341301 236.347 2.7583 236.579 4.9513H235.087C234.681 3.0433 233.437 1.6603 230.622 1.6603C228.049 1.6603 226.647 2.8553 226.647 4.8433C226.647 6.8053 227.819 7.5703 231.123 8.3893C236.188 9.6473 236.941 11.6743 236.941 13.8393C236.941 16.4993 235.002 18.7843 230.829 18.7843C226.333 18.7843 224.673 16.1723 224.337 13.7393H225.828Z" fill="#201D1E"/>
<path d="M241.06 13.7393C241.596 16.1163 243.182 17.5153 246.117 17.5153C249.38 17.5153 250.63 15.8893 250.63 13.9503C250.63 11.9333 249.732 10.6883 245.795 9.7173C241.97 8.7633 240.336 7.5183 240.336 4.9273C240.336 2.5483 242.071 0.341301 245.932 0.341301C249.905 0.341301 251.579 2.7583 251.811 4.9513H250.319C249.913 3.0433 248.669 1.6603 245.854 1.6603C243.281 1.6603 241.879 2.8553 241.879 4.8433C241.879 6.8053 243.051 7.5703 246.355 8.3893C251.42 9.6473 252.173 11.6743 252.173 13.8393C252.173 16.4993 250.234 18.7843 246.061 18.7843C241.565 18.7843 239.905 16.1723 239.569 13.7393H241.06Z" fill="#201D1E"/>
<path d="M264.102 18.5776H262.662V0.598633H264.102V18.5776Z" fill="#201D1E"/>
<path d="M269.366 18.5778V0.598759H271.48C274.268 4.90676 280.791 14.8908 281.915 16.8438H281.942C281.786 14.2648 281.811 11.6088 281.811 8.67976V0.598759H283.27V18.5778H281.311C278.656 14.4308 272.022 4.02176 270.746 2.04176H270.721C270.849 4.38776 270.824 7.03076 270.824 10.2918V18.5778H269.366Z" fill="#201D1E"/>
<path d="M289.97 17.2538H294.28C299.004 17.2538 301.325 13.9308 301.325 9.50782C301.325 5.57382 299.233 1.92182 294.281 1.92182H289.97V17.2538ZM288.53 0.59782H294.514C299.452 0.59782 302.868 4.03982 302.868 9.43182C302.868 14.7978 299.53 18.5778 294.485 18.5778H288.53V0.59782Z" fill="#201D1E"/>
<path d="M308.334 0.59824V11.4842C308.334 16.2332 311.011 17.4622 313.54 17.4622C316.529 17.4622 318.746 16.2042 318.746 11.4842V0.59824H320.212V11.4052C320.212 17.0412 317.219 18.7842 313.489 18.7842C309.934 18.7842 306.843 16.8642 306.843 11.6332V0.59824H308.334Z" fill="#201D1E"/>
<path d="M324.727 13.7393C325.263 16.1163 326.849 17.5153 329.784 17.5153C333.047 17.5153 334.297 15.8893 334.297 13.9503C334.297 11.9333 333.399 10.6883 329.462 9.7173C325.637 8.7633 324.003 7.5183 324.003 4.9273C324.003 2.5483 325.738 0.341301 329.599 0.341301C333.572 0.341301 335.246 2.7583 335.478 4.9513H333.986C333.58 3.0433 332.336 1.6603 329.521 1.6603C326.948 1.6603 325.546 2.8553 325.546 4.8433C325.546 6.8053 326.718 7.5703 330.022 8.3893C335.087 9.6473 335.84 11.6743 335.84 13.8393C335.84 16.4993 333.901 18.7843 329.728 18.7843C325.232 18.7843 323.572 16.1723 323.236 13.7393H324.727Z" fill="#201D1E"/>
<path d="M343.321 1.92321H337.298V0.598209H350.835V1.92321H344.787V18.5772H343.321V1.92321Z" fill="#201D1E"/>
<path d="M354.96 8.88164H359.277C362.414 8.88164 363.865 7.70764 363.865 5.36364C363.865 3.17064 362.437 1.92164 359.656 1.92164H354.96V8.88164ZM354.96 10.2046V18.5776H353.496V0.598637H359.974C363.526 0.598637 365.407 2.50464 365.407 5.32864C365.407 7.61764 364.046 9.10364 362.058 9.54164C363.887 9.97564 365.122 11.1776 365.122 14.2376V14.9356C365.122 16.1926 365.022 17.8806 365.354 18.5776H363.892C363.559 17.8066 363.633 16.3706 363.633 14.8216V14.3636C363.633 11.4306 362.768 10.2046 359.338 10.2046H354.96Z" fill="#201D1E"/>
<path d="M371.222 18.5776H369.782V0.598633H371.222V18.5776Z" fill="#201D1E"/>
<path d="M387.082 9.76545H377.924V17.2525H387.956L387.745 18.5775H376.487V0.598454H387.543V1.92345H377.924V8.44045H387.082V9.76545Z" fill="#201D1E"/>
<path d="M391.825 13.7393C392.361 16.1163 393.947 17.5153 396.882 17.5153C400.145 17.5153 401.395 15.8893 401.395 13.9503C401.395 11.9333 400.497 10.6883 396.56 9.7173C392.735 8.7633 391.101 7.5183 391.101 4.9273C391.101 2.5483 392.836 0.341301 396.697 0.341301C400.67 0.341301 402.344 2.7583 402.576 4.9513H401.084C400.678 3.0433 399.434 1.6603 396.619 1.6603C394.046 1.6603 392.644 2.8553 392.644 4.8433C392.644 6.8053 393.816 7.5703 397.12 8.3893C402.185 9.6473 402.938 11.6743 402.938 13.8393C402.938 16.4993 400.999 18.7843 396.826 18.7843C392.33 18.7843 390.67 16.1723 390.334 13.7393H391.825Z" fill="#201D1E"/>
</svg>
