<svg width="590" height="164" viewBox="0 0 590 164" fill="none" xmlns="http://www.w3.org/2000/svg">
<path d="M203.22 49.0554L213.945 84.3314L224.67 49.0554H240.8L223.251 98.5114H204.549L187 49.0554H203.22Z" fill="#DFE2E1"/>
<path d="M259.326 68.9979H278.294C278.294 63.5899 274.039 60.4879 268.988 60.4879C264.024 60.4879 260.213 63.5029 259.326 68.9979ZM269.165 99.2209C254.629 99.2209 244.17 89.4719 244.17 73.7829C244.17 58.0949 254.452 48.3449 269.165 48.3449C283.612 48.3449 293.804 57.9179 293.804 72.9859C293.804 74.4039 293.716 75.9109 293.539 77.4179H259.237C259.769 83.8869 263.758 86.9019 268.632 86.9019C272.887 86.9019 275.28 84.7729 276.521 82.1149H292.652C290.259 91.7759 281.485 99.2209 269.165 99.2209Z" fill="#DFE2E1"/>
<path d="M335.907 71.6561C335.907 64.9201 332.185 61.1971 326.423 61.1971C320.662 61.1971 316.939 64.9201 316.939 71.6561V98.5121H301.783V49.0551H316.939V55.6141C319.953 51.4471 325.271 48.5221 331.919 48.5221C343.353 48.5221 350.974 56.3231 350.974 69.6171V98.5121H335.907V71.6561Z" fill="#DFE2E1"/>
<path d="M363.918 61.641H357.891V49.055H363.918V37H379.074V49.055H389.001V61.641H379.074V81.494C379.074 84.419 380.315 85.659 383.683 85.659H389.09V98.512H381.379C371.097 98.512 363.918 94.169 363.918 81.317V61.641Z" fill="#DFE2E1"/>
<path d="M446.348 98.5117H431.192V91.7757C428.178 96.0307 422.86 99.0437 416.213 99.0437C404.779 99.0437 397.068 91.1547 397.068 77.9497V49.0557H412.135V75.9107C412.135 82.6467 415.946 86.3697 421.619 86.3697C427.47 86.3697 431.192 82.6467 431.192 75.9107V49.0557H446.348V98.5117Z" fill="#DFE2E1"/>
<path d="M472.407 98.5117H457.251V49.0557H472.407V57.2967C475.864 52.0677 481.27 48.5217 487.918 48.5217V64.5657H483.752C476.573 64.5657 472.407 67.0467 472.407 75.5567V98.5117Z" fill="#DFE2E1"/>
<path d="M507.33 68.9979H526.298C526.298 63.5899 522.043 60.4879 516.992 60.4879C512.028 60.4879 508.217 63.5029 507.33 68.9979ZM517.169 99.2209C502.633 99.2209 492.174 89.4719 492.174 73.7829C492.174 58.0949 502.456 48.3449 517.169 48.3449C531.616 48.3449 541.808 57.9179 541.808 72.9859C541.808 74.4039 541.72 75.9109 541.543 77.4179H507.241C507.773 83.8869 511.762 86.9019 516.636 86.9019C520.891 86.9019 523.284 84.7729 524.525 82.1149H540.656C538.263 91.7759 529.489 99.2209 517.169 99.2209Z" fill="#DFE2E1"/>
<path d="M569.908 99.2205C556.701 99.2205 547.838 91.8655 547.129 82.2925H562.108C562.462 85.7485 565.565 88.0525 569.731 88.0525C573.63 88.0525 575.669 86.2805 575.669 84.0645C575.669 76.0885 548.725 81.8485 548.725 63.6795C548.725 55.2595 555.904 48.3445 568.845 48.3445C581.608 48.3445 588.699 55.4365 589.673 65.1855H575.669C575.226 61.8185 572.656 59.6025 568.401 59.6025C564.856 59.6025 562.906 61.0195 562.906 63.4135C562.906 71.3015 589.673 65.7165 589.939 84.1535C589.939 92.7515 582.316 99.2205 569.908 99.2205Z" fill="#DFE2E1"/>
<path d="M188.44 135.578H187V117.599H188.44V135.578Z" fill="#DFE2E1"/>
<path d="M193.704 135.578V117.599H195.818C198.606 121.907 205.129 131.891 206.253 133.844H206.28C206.124 131.265 206.149 128.609 206.149 125.68V117.599H207.608V135.578H205.649C202.994 131.431 196.36 121.022 195.084 119.042H195.059C195.187 121.388 195.162 124.031 195.162 127.292V135.578H193.704Z" fill="#DFE2E1"/>
<path d="M212.868 135.578V117.599H214.982C217.77 121.907 224.293 131.891 225.417 133.844H225.444C225.288 131.265 225.313 128.609 225.313 125.68V117.599H226.772V135.578H224.813C222.158 131.431 215.524 121.022 214.248 119.042H214.223C214.351 121.388 214.326 124.031 214.326 127.292V135.578H212.868Z" fill="#DFE2E1"/>
<path d="M232.244 126.511C232.244 130.633 234.514 134.511 238.805 134.511C243.429 134.511 245.365 130.729 245.365 126.487C245.365 122.317 243.173 118.666 238.854 118.666C234.26 118.666 232.244 122.465 232.244 126.511ZM246.908 126.462C246.908 131.369 244.28 135.835 238.726 135.835C233.654 135.835 230.7 131.751 230.7 126.588C230.7 121.499 233.56 117.341 238.907 117.341C243.846 117.341 246.908 121.216 246.908 126.462Z" fill="#DFE2E1"/>
<path d="M255.349 135.578L248.679 117.599H250.225L253.701 126.976C254.698 129.694 255.817 132.68 256.204 134.203H256.256C256.64 132.86 257.861 129.721 258.86 127.078L262.465 117.599H263.981L257.056 135.578H255.349Z" fill="#DFE2E1"/>
<path d="M274.084 128.081C272.097 122.772 271.074 120.207 270.713 118.99H270.687C270.25 120.361 269.1 123.538 267.494 128.081H274.084ZM266.999 129.406L264.732 135.578H263.268L269.858 117.598H271.572L278.444 135.578H276.874L274.555 129.406H266.999Z" fill="#DFE2E1"/>
<path d="M283.021 118.923H276.998V117.598H290.535V118.923H284.487V135.577H283.021V118.923Z" fill="#DFE2E1"/>
<path d="M294.635 135.578H293.195V117.599H294.635V135.578Z" fill="#DFE2E1"/>
<path d="M299.899 135.578V117.599H302.013C304.801 121.907 311.324 131.891 312.448 133.844H312.475C312.319 131.265 312.344 128.609 312.344 125.68V117.599H313.803V135.578H311.844C309.189 131.431 302.555 121.022 301.279 119.042H301.254C301.382 121.388 301.357 124.031 301.357 127.292V135.578H299.899Z" fill="#DFE2E1"/>
<path d="M332.714 135.578H331.521C331.419 135.365 331.365 134.447 331.339 132.725C330.689 133.96 329.27 135.786 325.546 135.786C320.382 135.786 317.731 131.855 317.731 126.744C317.731 121.375 320.563 117.341 325.837 117.341C329.732 117.341 332.304 119.383 332.866 122.691H331.426C330.664 120.177 328.909 118.663 325.786 118.663C321.308 118.663 319.275 122.148 319.275 126.665C319.275 130.753 321.236 134.462 325.61 134.462C330.081 134.462 331.326 131.548 331.326 127.617V127.413H325.561V126.088H332.714V135.578Z" fill="#DFE2E1"/>
<path d="M352.793 128.081C350.806 122.772 349.783 120.207 349.422 118.99H349.396C348.959 120.361 347.809 123.538 346.203 128.081H352.793ZM345.708 129.406L343.441 135.578H341.977L348.567 117.598H350.281L357.153 135.578H355.583L353.264 129.406H345.708Z" fill="#DFE2E1"/>
<path d="M373.634 130.759C372.789 133.621 370.674 135.785 366.857 135.785C361.684 135.785 358.961 131.677 358.961 126.615C358.961 121.76 361.636 117.341 366.886 117.341C370.785 117.341 373.071 119.513 373.659 122.518H372.219C371.406 120.202 369.902 118.663 366.809 118.663C362.366 118.663 360.506 122.722 360.506 126.587C360.506 130.423 362.338 134.462 366.912 134.462C369.831 134.462 371.306 132.943 372.194 130.759H373.634Z" fill="#DFE2E1"/>
<path d="M378.968 125.882H383.285C386.422 125.882 387.873 124.708 387.873 122.364C387.873 120.171 386.445 118.922 383.665 118.922H378.968V125.882ZM378.968 127.205V135.578H377.504V117.599H383.982C387.534 117.599 389.415 119.505 389.415 122.329C389.415 124.618 388.054 126.104 386.066 126.542C387.895 126.976 389.13 128.178 389.13 131.238V131.936C389.13 133.193 389.03 134.881 389.362 135.578H387.9C387.567 134.807 387.641 133.371 387.641 131.822V131.364C387.641 128.431 386.776 127.205 383.346 127.205H378.968Z" fill="#DFE2E1"/>
<path d="M394.131 126.511C394.131 130.633 396.401 134.511 400.692 134.511C405.316 134.511 407.252 130.729 407.252 126.487C407.252 122.317 405.06 118.666 400.741 118.666C396.147 118.666 394.131 122.465 394.131 126.511ZM408.795 126.462C408.795 131.369 406.167 135.835 400.613 135.835C395.541 135.835 392.587 131.751 392.587 126.588C392.587 121.499 395.447 117.341 400.794 117.341C405.733 117.341 408.795 121.216 408.795 126.462Z" fill="#DFE2E1"/>
<path d="M412.828 130.739C413.364 133.116 414.95 134.515 417.885 134.515C421.148 134.515 422.398 132.889 422.398 130.95C422.398 128.933 421.5 127.688 417.563 126.717C413.738 125.763 412.104 124.518 412.104 121.927C412.104 119.548 413.839 117.341 417.7 117.341C421.673 117.341 423.347 119.758 423.579 121.951H422.087C421.681 120.043 420.437 118.66 417.622 118.66C415.049 118.66 413.647 119.855 413.647 121.843C413.647 123.805 414.819 124.57 418.123 125.389C423.188 126.647 423.941 128.674 423.941 130.839C423.941 133.499 422.002 135.784 417.829 135.784C413.333 135.784 411.673 133.172 411.337 130.739H412.828Z" fill="#DFE2E1"/>
<path d="M428.06 130.739C428.596 133.116 430.182 134.515 433.117 134.515C436.38 134.515 437.63 132.889 437.63 130.95C437.63 128.933 436.732 127.688 432.795 126.717C428.97 125.763 427.336 124.518 427.336 121.927C427.336 119.548 429.071 117.341 432.932 117.341C436.905 117.341 438.579 119.758 438.811 121.951H437.319C436.913 120.043 435.669 118.66 432.854 118.66C430.281 118.66 428.879 119.855 428.879 121.843C428.879 123.805 430.051 124.57 433.355 125.389C438.42 126.647 439.173 128.674 439.173 130.839C439.173 133.499 437.234 135.784 433.061 135.784C428.565 135.784 426.905 133.172 426.569 130.739H428.06Z" fill="#DFE2E1"/>
<path d="M451.102 135.578H449.662V117.599H451.102V135.578Z" fill="#DFE2E1"/>
<path d="M456.366 135.578V117.599H458.48C461.268 121.907 467.791 131.891 468.915 133.844H468.942C468.786 131.265 468.811 128.609 468.811 125.68V117.599H470.27V135.578H468.311C465.656 131.431 459.022 121.022 457.746 119.042H457.721C457.849 121.388 457.824 124.031 457.824 127.292V135.578H456.366Z" fill="#DFE2E1"/>
<path d="M476.971 134.254H481.281C486.005 134.254 488.326 130.931 488.326 126.508C488.326 122.574 486.234 118.922 481.282 118.922H476.971V134.254ZM475.531 117.598H481.515C486.453 117.598 489.869 121.04 489.869 126.432C489.869 131.798 486.531 135.578 481.486 135.578H475.531V117.598Z" fill="#DFE2E1"/>
<path d="M495.334 117.598V128.484C495.334 133.233 498.011 134.462 500.54 134.462C503.529 134.462 505.746 133.204 505.746 128.484V117.598H507.212V128.405C507.212 134.041 504.219 135.784 500.489 135.784C496.934 135.784 493.843 133.864 493.843 128.633V117.598H495.334Z" fill="#DFE2E1"/>
<path d="M511.727 130.739C512.263 133.116 513.849 134.515 516.784 134.515C520.047 134.515 521.297 132.889 521.297 130.95C521.297 128.933 520.399 127.688 516.462 126.717C512.637 125.763 511.003 124.518 511.003 121.927C511.003 119.548 512.738 117.341 516.599 117.341C520.572 117.341 522.246 119.758 522.478 121.951H520.986C520.58 120.043 519.336 118.66 516.521 118.66C513.948 118.66 512.546 119.855 512.546 121.843C512.546 123.805 513.718 124.57 517.022 125.389C522.087 126.647 522.84 128.674 522.84 130.839C522.84 133.499 520.901 135.784 516.728 135.784C512.232 135.784 510.572 133.172 510.236 130.739H511.727Z" fill="#DFE2E1"/>
<path d="M530.321 118.923H524.298V117.598H537.835V118.923H531.787V135.577H530.321V118.923Z" fill="#DFE2E1"/>
<path d="M541.96 125.882H546.277C549.414 125.882 550.865 124.708 550.865 122.364C550.865 120.171 549.437 118.922 546.656 118.922H541.96V125.882ZM541.96 127.205V135.578H540.496V117.599H546.974C550.526 117.599 552.407 119.505 552.407 122.329C552.407 124.618 551.046 126.104 549.058 126.542C550.887 126.976 552.122 128.178 552.122 131.238V131.936C552.122 133.193 552.022 134.881 552.354 135.578H550.892C550.559 134.807 550.633 133.371 550.633 131.822V131.364C550.633 128.431 549.768 127.205 546.338 127.205H541.96Z" fill="#DFE2E1"/>
<path d="M558.222 135.578H556.782V117.599H558.222V135.578Z" fill="#DFE2E1"/>
<path d="M574.082 126.765H564.924V134.252H574.956L574.745 135.577H563.487V117.598H574.543V118.923H564.924V125.44H574.082V126.765Z" fill="#DFE2E1"/>
<path d="M578.825 130.739C579.361 133.116 580.947 134.515 583.882 134.515C587.145 134.515 588.395 132.889 588.395 130.95C588.395 128.933 587.497 127.688 583.56 126.717C579.735 125.763 578.101 124.518 578.101 121.927C578.101 119.548 579.836 117.341 583.697 117.341C587.67 117.341 589.344 119.758 589.576 121.951H588.084C587.678 120.043 586.434 118.66 583.619 118.66C581.046 118.66 579.644 119.855 579.644 121.843C579.644 123.805 580.816 124.57 584.12 125.389C589.185 126.647 589.938 128.674 589.938 130.839C589.938 133.499 587.999 135.784 583.826 135.784C579.33 135.784 577.67 133.172 577.334 130.739H578.825Z" fill="#DFE2E1"/>
<mask id="mask0_29_3" style="mask-type:luminance" maskUnits="userSpaceOnUse" x="16" y="0" width="139" height="74">
<path d="M85.9 0C83.7 0.1 80.5 0.699988 76.8 1.79999C72.2 2.69999 67.7 4.49999 63.3 7.29999C58.5 9.69999 54.1 12.6 51.4 15.7C51.6 15.5 51.8 15.3 52 15.1C49.9 17.4 48.5 19.8 48.5 22.1C48.5 20 49.6 17.8 51.4 15.7C49.4 17.7 48.2 19.7 48.2 21.8C48.3 22.8 48.6 23.7 49.1 24.6C51.8 30.1 63.6 35.8 72.4 39.8C75.9 41.5 78.9 42.8 80.5 43.8L74.6 47.2L36.3 25L16 36.7V36.8C32.9 46.6 54.3 65.7 75.5 71.1C75.6 71.1 75.6 71.1 75.6 71.1C83.2 74 89.1 74.3 96.8 71.5C103.4 69 122.7 60.8 124.1 53.3C124.2 53 124.2 52.6 124.2 52.3C124.3 51.8 124.3 51.2 124.3 50.7C124.2 50 123.9 49.3 123.6 48.6C123.5 48.5 123.5 48.3 123.4 48.2C120.1 42 107.1 36.2 98.7 32.3C96.1 31.1 94 30.1 92.7 29.4L98.4 26.1L134.1 46.7L154.2 35C138.3 23.5 107.6 0 86.4 0C86.2 0 86 0 85.9 0Z" fill="white"/>
</mask>
<g mask="url(#mask0_29_3)">
<path d="M395.025 -987.905L1366.61 182.125L196.575 1153.71L-775.005 -16.3253L395.025 -987.905Z" fill="url(#paint0_linear_29_3)"/>
</g>
<mask id="mask1_29_3" style="mask-type:luminance" maskUnits="userSpaceOnUse" x="84" y="48" width="74" height="116">
<path d="M154.397 50.4C142.597 56.9 128.197 62.9 115.697 70.6C108.597 74.8 102.097 79.3001 96.797 84.5001C89.897 91.1001 87.597 99.3 86.797 107.9C86.897 106.5 87.097 105.1 87.397 103.7C87.197 104.9 86.997 106.1 86.897 107.3C86.797 108 86.6971 108.8 86.5971 109.6C86.6971 109.4 86.697 109.2 86.697 109.1C86.697 109.3 86.5971 109.6 86.5971 109.8C86.5971 110 86.5971 110.2 86.5971 110.4C85.7971 120.2 80.097 156.6 91.797 162.7C92.897 163.3 94.297 163.6 95.797 163.6C108.397 165 138.997 142.7 147.197 134.2C148.897 132.4 150.297 130.6 151.497 128.6C151.597 128.4 151.697 128.3 151.897 128.1C160.297 114.3 157.397 95.3001 157.397 80.0001H157.297L122.097 100.3V120.9V121L132.297 115.1V121.7L115.397 131.5V96.3L157.197 72.2V48.9C156.197 49.4 155.297 49.9 154.397 50.4Z" fill="white"/>
</mask>
<g mask="url(#mask1_29_3)">
<path d="M391.622 -987.705L1363.2 182.325L193.172 1153.91L-778.408 -16.1253L391.622 -987.705Z" fill="url(#paint1_linear_29_3)"/>
</g>
<mask id="mask2_29_3" style="mask-type:luminance" maskUnits="userSpaceOnUse" x="0" y="41" width="77" height="123">
<path d="M8.54102 41.3C8.34102 41.3 8.04103 41.4 7.84103 41.5C7.74103 41.5 7.54103 41.5 7.44103 41.6C6.94103 41.7 6.54102 41.9 6.04102 42.2C2.84102 43.8 1.14103 50.4 0.441033 59.1C0.941033 53.6 1.74103 49.1 3.14103 46C0.14103 52.8 -0.258979 67 0.241021 81.4C-0.0589793 73.5 -0.058967 65.7 0.441033 59.1C-1.25897 80.1 2.44103 113.6 3.34103 121.8L23.941 133.7H24.041L23.941 88.1L29.241 91.2V136.7L49.541 148.5V148.4L49.641 102.8L55.041 105.9V151.8L75.541 163.7C75.541 161.6 75.541 159.5 75.641 157.4C75.641 157.4 75.641 157.4 75.641 157.5C75.641 150.2 75.641 142.9 75.741 135.6C75.641 142.9 75.641 150.1 75.641 157.4C76.041 139.2 77.641 120 76.541 101.8C76.541 97.1 76.141 92.6 75.041 88.3C74.141 83.5 72.741 79.9 68.641 75.7C65.541 72.7 57.041 66.5 49.841 64.4C48.641 64.1 47.441 63.8 46.341 63.7C44.741 63.5 43.241 63.7 42.041 64.4C40.141 65.4 38.941 67.5 38.841 71.3C38.741 71.1 38.641 70.8 38.641 70.5L38.541 70.3C37.741 66.4 34.541 60.3 30.241 54.7C24.841 47.4 17.741 41 10.941 41C10.141 41 9.34102 41.1 8.54102 41.3ZM71.641 80.5C72.541 81.8 73.141 83.1 73.741 84.5C73.141 83.1 72.441 81.8 71.641 80.5Z" fill="white"/>
</mask>
<g mask="url(#mask2_29_3)">
<path d="M394.066 -990.005L1365.65 180.025L195.616 1151.61L-775.964 -18.4252L394.066 -990.005Z" fill="url(#paint2_linear_29_3)"/>
</g>
<defs>
<linearGradient id="paint0_linear_29_3" x1="34.2395" y1="-25.3748" x2="168.525" y2="136.339" gradientUnits="userSpaceOnUse">
<stop stop-color="#FF5859"/>
<stop offset="0.635714" stop-color="#FF432F"/>
<stop offset="1" stop-color="#FF3718"/>
</linearGradient>
<linearGradient id="paint1_linear_29_3" x1="21.652" y1="-17.5479" x2="155.938" y2="144.166" gradientUnits="userSpaceOnUse">
<stop stop-color="#FF5859"/>
<stop offset="0.635714" stop-color="#FF432F"/>
<stop offset="1" stop-color="#FF3718"/>
</linearGradient>
<linearGradient id="paint2_linear_29_3" x1="-27.1104" y1="22.6732" x2="107.175" y2="184.387" gradientUnits="userSpaceOnUse">
<stop stop-color="#FF5859"/>
<stop offset="0.635714" stop-color="#FF432F"/>
<stop offset="1" stop-color="#FF3718"/>
</linearGradient>
</defs>
</svg>
