<svg width="78" height="123" viewBox="0 0 78 123" fill="none" xmlns="http://www.w3.org/2000/svg">
<mask id="mask0_2_98" style="mask-type:luminance" maskUnits="userSpaceOnUse" x="0" y="0" width="78" height="123">
<path d="M9.0333 0.5C8.8333 0.5 8.53331 0.600012 8.33331 0.700012C8.23331 0.700012 8.03331 0.699988 7.93331 0.799988C7.43331 0.899988 7.0333 1.09999 6.5333 1.39999C3.3333 2.99999 1.63331 9.59999 0.933312 18.3C1.43331 12.8 2.23331 8.30001 3.63331 5.20001C0.633309 12 0.2333 26.2 0.7333 40.6C0.4333 32.7 0.433312 24.9 0.933312 18.3C-0.766688 39.3 2.93331 72.8 3.83331 81L24.4333 92.9H24.5333L24.4333 47.3L29.7333 50.4V95.9L50.0333 107.7V107.6L50.1333 62L55.5333 65.1V111L76.0333 122.9C76.0333 120.8 76.0333 118.7 76.1333 116.6C76.1333 116.6 76.1333 116.6 76.1333 116.7C76.1333 109.4 76.1333 102.1 76.2333 94.8C76.1333 102.1 76.1333 109.3 76.1333 116.6C76.5333 98.4 78.1333 79.2 77.0333 61C77.0333 56.3 76.6333 51.8 75.5333 47.5C74.6333 42.7 73.2333 39.1 69.1333 34.9C66.0333 31.9 57.5333 25.7 50.3333 23.6C49.1333 23.3 47.9333 23 46.8333 22.9C45.2333 22.7 43.7333 22.9 42.5333 23.6C40.6333 24.6 39.4333 26.7 39.3333 30.5C39.2333 30.3 39.1333 30 39.1333 29.7L39.0333 29.5C38.2333 25.6 35.0333 19.5 30.7333 13.9C25.3333 6.60002 18.2333 0.200012 11.4333 0.200012C10.6333 0.200012 9.8333 0.3 9.0333 0.5ZM72.1333 39.7C73.0333 41 73.6333 42.3 74.2333 43.7C73.6333 42.3 72.9333 41 72.1333 39.7Z" fill="white"/>
</mask>
<g mask="url(#mask0_2_98)">
<path d="M394.558 -1030.81L1366.14 139.225L196.108 1110.81L-775.472 -59.2252L394.558 -1030.81Z" fill="url(#paint0_linear_2_98)"/>
</g>
<defs>
<linearGradient id="paint0_linear_2_98" x1="-26.6181" y1="-18.1268" x2="107.668" y2="143.588" gradientUnits="userSpaceOnUse">
<stop stop-color="#FF5859"/>
<stop offset="0.635714" stop-color="#FF432F"/>
<stop offset="1" stop-color="#FF3718"/>
</linearGradient>
</defs>
</svg>
