<svg width="139" height="74" viewBox="0 0 139 74" fill="none" xmlns="http://www.w3.org/2000/svg">
<mask id="mask0_2_26" style="mask-type:luminance" maskUnits="userSpaceOnUse" x="0" y="0" width="139" height="74">
<path d="M70.4333 0.0999756C68.2333 0.199976 65.0333 0.799963 61.3333 1.89996C56.7333 2.79996 52.2333 4.59996 47.8333 7.39996C43.0333 9.79996 38.6333 12.7 35.9333 15.8C36.1333 15.6 36.3334 15.4 36.5334 15.2C34.4334 17.5 33.0334 19.9 33.0334 22.2C33.0334 20.1 34.1333 17.9 35.9333 15.8C33.9333 17.8 32.7333 19.8 32.7333 21.9C32.8333 22.9 33.1333 23.8 33.6333 24.7C36.3333 30.2 48.1333 35.9 56.9333 39.9C60.4333 41.6 63.4334 42.9 65.0334 43.9L59.1333 47.3L20.8333 25.1L0.533356 36.8V36.9C17.4334 46.7 38.8334 65.8 60.0334 71.2C60.1334 71.2 60.1333 71.2 60.1333 71.2C67.7333 74.1 73.6333 74.3999 81.3333 71.5999C87.9333 69.0999 107.233 60.9 108.633 53.4C108.733 53.1 108.733 52.7 108.733 52.4C108.833 51.9 108.833 51.3 108.833 50.8C108.733 50.1 108.433 49.4 108.133 48.7C108.033 48.6 108.033 48.4 107.933 48.3C104.633 42.1 91.6333 36.3 83.2333 32.4C80.6333 31.2 78.5333 30.2 77.2333 29.5L82.9333 26.2L118.633 46.8L138.733 35.1C122.833 23.6 92.1334 0.0999756 70.9333 0.0999756C70.7333 0.0999756 70.5333 0.0999756 70.4333 0.0999756Z" fill="white"/>
</mask>
<g mask="url(#mask0_2_26)">
<path d="M379.558 -987.805L1351.14 182.225L181.108 1153.81L-790.472 -16.2253L379.558 -987.805Z" fill="url(#paint0_linear_2_26)"/>
</g>
<defs>
<linearGradient id="paint0_linear_2_26" x1="18.7729" y1="-25.2748" x2="153.059" y2="136.439" gradientUnits="userSpaceOnUse">
<stop stop-color="#FF5859"/>
<stop offset="0.635714" stop-color="#FF432F"/>
<stop offset="1" stop-color="#FF3718"/>
</linearGradient>
</defs>
</svg>
