<svg width="158" height="164" viewBox="0 0 158 164" fill="none" xmlns="http://www.w3.org/2000/svg">
<g id="smg">
<g id="s">
<mask id="mask0_21_6" style="mask-type:luminance" maskUnits="userSpaceOnUse" x="16" y="0" width="139" height="74">
<path id="Vector" d="M85.9 0C83.7 0.1 80.5 0.699988 76.8 1.79999C72.2 2.69999 67.7 4.49999 63.3 7.29999C58.5 9.69999 54.1 12.6 51.4 15.7C51.6 15.5 51.8 15.3 52 15.1C49.9 17.4 48.5 19.8 48.5 22.1C48.5 20 49.6 17.8 51.4 15.7C49.4 17.7 48.2 19.7 48.2 21.8C48.3 22.8 48.6 23.7 49.1 24.6C51.8 30.1 63.6 35.8 72.4 39.8C75.9 41.5 78.9 42.8 80.5 43.8L74.6 47.2L36.3 25L16 36.7V36.8C32.9 46.6 54.3 65.7 75.5 71.1C75.6 71.1 75.6 71.1 75.6 71.1C83.2 74 89.1 74.3 96.8 71.5C103.4 69 122.7 60.8 124.1 53.3C124.2 53 124.2 52.6 124.2 52.3C124.3 51.8 124.3 51.2 124.3 50.7C124.2 50 123.9 49.3 123.6 48.6C123.5 48.5 123.5 48.3 123.4 48.2C120.1 42 107.1 36.2 98.7 32.3C96.1 31.1 94 30.1 92.7 29.4L98.4 26.1L134.1 46.7L154.2 35C138.3 23.5 107.6 0 86.4 0C86.2 0 86 0 85.9 0Z" fill="white"/>
</mask>
<g mask="url(#mask0_21_6)">
<path id="Vector_2" d="M395.025 -987.905L1366.61 182.125L196.575 1153.71L-775.005 -16.3253L395.025 -987.905Z" fill="url(#paint0_linear_21_6)"/>
</g>
</g>
<g id="g">
<mask id="mask1_21_6" style="mask-type:luminance" maskUnits="userSpaceOnUse" x="84" y="48" width="74" height="116">
<path id="Vector_3" d="M154.397 50.4C142.597 56.9 128.197 62.9 115.697 70.6C108.597 74.8 102.097 79.3001 96.797 84.5001C89.897 91.1001 87.597 99.3 86.797 107.9C86.897 106.5 87.097 105.1 87.397 103.7C87.197 104.9 86.997 106.1 86.897 107.3C86.797 108 86.6971 108.8 86.5971 109.6C86.6971 109.4 86.697 109.2 86.697 109.1C86.697 109.3 86.5971 109.6 86.5971 109.8C86.5971 110 86.5971 110.2 86.5971 110.4C85.7971 120.2 80.097 156.6 91.797 162.7C92.897 163.3 94.297 163.6 95.797 163.6C108.397 165 138.997 142.7 147.197 134.2C148.897 132.4 150.297 130.6 151.497 128.6C151.597 128.4 151.697 128.3 151.897 128.1C160.297 114.3 157.397 95.3001 157.397 80.0001H157.297L122.097 100.3V120.9V121L132.297 115.1V121.7L115.397 131.5V96.3L157.197 72.2V48.9C156.197 49.4 155.297 49.9 154.397 50.4Z" fill="white"/>
</mask>
<g mask="url(#mask1_21_6)">
<path id="Vector_4" d="M391.622 -987.705L1363.2 182.325L193.172 1153.91L-778.408 -16.1253L391.622 -987.705Z" fill="url(#paint1_linear_21_6)"/>
</g>
</g>
<g id="m">
<mask id="mask2_21_6" style="mask-type:luminance" maskUnits="userSpaceOnUse" x="0" y="41" width="77" height="123">
<path id="Vector_5" d="M8.54102 41.3C8.34102 41.3 8.04103 41.4 7.84103 41.5C7.74103 41.5 7.54103 41.5 7.44103 41.6C6.94103 41.7 6.54102 41.9 6.04102 42.2C2.84102 43.8 1.14103 50.4 0.441033 59.1C0.941033 53.6 1.74103 49.1 3.14103 46C0.14103 52.8 -0.258979 67 0.241021 81.4C-0.0589793 73.5 -0.058967 65.7 0.441033 59.1C-1.25897 80.1 2.44103 113.6 3.34103 121.8L23.941 133.7H24.041L23.941 88.1L29.241 91.2V136.7L49.541 148.5V148.4L49.641 102.8L55.041 105.9V151.8L75.541 163.7C75.541 161.6 75.541 159.5 75.641 157.4C75.641 157.4 75.641 157.4 75.641 157.5C75.641 150.2 75.641 142.9 75.741 135.6C75.641 142.9 75.641 150.1 75.641 157.4C76.041 139.2 77.641 120 76.541 101.8C76.541 97.1 76.141 92.6 75.041 88.3C74.141 83.5 72.741 79.9 68.641 75.7C65.541 72.7 57.041 66.5 49.841 64.4C48.641 64.1 47.441 63.8 46.341 63.7C44.741 63.5 43.241 63.7 42.041 64.4C40.141 65.4 38.941 67.5 38.841 71.3C38.741 71.1 38.641 70.8 38.641 70.5L38.541 70.3C37.741 66.4 34.541 60.3 30.241 54.7C24.841 47.4 17.741 41 10.941 41C10.141 41 9.34102 41.1 8.54102 41.3ZM71.641 80.5C72.541 81.8 73.141 83.1 73.741 84.5C73.141 83.1 72.441 81.8 71.641 80.5Z" fill="white"/>
</mask>
<g mask="url(#mask2_21_6)">
<path id="Vector_6" d="M394.066 -990.005L1365.65 180.025L195.616 1151.61L-775.964 -18.4252L394.066 -990.005Z" fill="url(#paint2_linear_21_6)"/>
</g>
</g>
</g>
<defs>
<linearGradient id="paint0_linear_21_6" x1="34.2395" y1="-25.3748" x2="168.525" y2="136.339" gradientUnits="userSpaceOnUse">
<stop stop-color="#FF5859"/>
<stop offset="0.635714" stop-color="#FF432F"/>
<stop offset="1" stop-color="#FF3718"/>
</linearGradient>
<linearGradient id="paint1_linear_21_6" x1="21.652" y1="-17.5479" x2="155.938" y2="144.166" gradientUnits="userSpaceOnUse">
<stop stop-color="#FF5859"/>
<stop offset="0.635714" stop-color="#FF432F"/>
<stop offset="1" stop-color="#FF3718"/>
</linearGradient>
<linearGradient id="paint2_linear_21_6" x1="-27.1104" y1="22.6732" x2="107.175" y2="184.387" gradientUnits="userSpaceOnUse">
<stop stop-color="#FF5859"/>
<stop offset="0.635714" stop-color="#FF432F"/>
<stop offset="1" stop-color="#FF3718"/>
</linearGradient>
</defs>
</svg>
