<svg width="403" height="19" viewBox="0 0 403 19" fill="none" xmlns="http://www.w3.org/2000/svg">
<g id="tagline">
<path id="Vector" d="M1.44 18.5776H0V0.598602H1.44V18.5776Z" fill="#201D1E"/>
<path id="Vector_2" d="M6.7041 18.5777V0.598728H8.8181C11.6061 4.90673 18.1291 14.8907 19.2531 16.8437H19.2801C19.1241 14.2647 19.1491 11.6087 19.1491 8.67973V0.598728H20.6081V18.5777H18.6491C15.9941 14.4307 9.3601 4.02173 8.0841 2.04173H8.0591C8.1871 4.38773 8.1621 7.03073 8.1621 10.2917V18.5777H6.7041Z" fill="#201D1E"/>
<path id="Vector_3" d="M25.8679 18.5777V0.598728H27.9819C30.7699 4.90673 37.2929 14.8907 38.4169 16.8437H38.4439C38.2879 14.2647 38.3129 11.6087 38.3129 8.67973V0.598728H39.7719V18.5777H37.8129C35.1579 14.4307 28.5239 4.02173 27.2479 2.04173H27.2229C27.3509 4.38773 27.3259 7.03073 27.3259 10.2917V18.5777H25.8679Z" fill="#201D1E"/>
<path id="Vector_4" d="M45.2443 9.51056C45.2443 13.6326 47.5143 17.5106 51.8053 17.5106C56.4293 17.5106 58.3653 13.7286 58.3653 9.48656C58.3653 5.31656 56.1733 1.66556 51.8543 1.66556C47.2603 1.66556 45.2443 5.46456 45.2443 9.51056ZM59.9083 9.46156C59.9083 14.3686 57.2803 18.8346 51.7263 18.8346C46.6543 18.8346 43.7003 14.7506 43.7003 9.58756C43.7003 4.49856 46.5603 0.340565 51.9073 0.340565C56.8463 0.340565 59.9083 4.21556 59.9083 9.46156Z" fill="#201D1E"/>
<path id="Vector_5" d="M68.3488 18.5777L61.6788 0.598728H63.2248L66.7008 9.97573C67.6978 12.6937 68.8168 15.6797 69.2038 17.2027H69.2558C69.6398 15.8597 70.8608 12.7207 71.8598 10.0777L75.4648 0.598728H76.9808L70.0558 18.5777H68.3488Z" fill="#201D1E"/>
<path id="Vector_6" d="M87.0842 11.0809C85.0972 5.77185 84.0742 3.20685 83.7132 1.98985H83.6872C83.2502 3.36085 82.1002 6.53785 80.4942 11.0809H87.0842ZM79.9992 12.4059L77.7322 18.5779H76.2682L82.8582 0.597851H84.5722L91.4442 18.5779H89.8742L87.5552 12.4059H79.9992Z" fill="#201D1E"/>
<path id="Vector_7" d="M96.0208 1.92318H89.9978V0.598179H103.535V1.92318H97.4868V18.5772H96.0208V1.92318Z" fill="#201D1E"/>
<path id="Vector_8" d="M107.635 18.5776H106.195V0.598602H107.635V18.5776Z" fill="#201D1E"/>
<path id="Vector_9" d="M112.899 18.5777V0.598728H115.013C117.801 4.90673 124.324 14.8907 125.448 16.8437H125.475C125.319 14.2647 125.344 11.6087 125.344 8.67973V0.598728H126.803V18.5777H124.844C122.189 14.4307 115.555 4.02173 114.279 2.04173H114.254C114.382 4.38773 114.357 7.03073 114.357 10.2917V18.5777H112.899Z" fill="#201D1E"/>
<path id="Vector_10" d="M145.714 18.5777H144.521C144.419 18.3647 144.365 17.4467 144.339 15.7247C143.689 16.9597 142.27 18.7857 138.546 18.7857C133.382 18.7857 130.731 14.8547 130.731 9.74374C130.731 4.37474 133.563 0.340736 138.837 0.340736C142.732 0.340736 145.304 2.38274 145.866 5.69074H144.426C143.664 3.17674 141.909 1.66273 138.786 1.66273C134.308 1.66273 132.275 5.14774 132.275 9.66474C132.275 13.7527 134.236 17.4617 138.61 17.4617C143.081 17.4617 144.326 14.5477 144.326 10.6167V10.4127H138.561V9.08774H145.714V18.5777Z" fill="#201D1E"/>
<path id="Vector_11" d="M165.793 11.0809C163.806 5.77185 162.783 3.20685 162.422 1.98985H162.396C161.959 3.36085 160.809 6.53785 159.203 11.0809H165.793ZM158.708 12.4059L156.441 18.5779H154.977L161.567 0.597851H163.281L170.153 18.5779H168.583L166.264 12.4059H158.708Z" fill="#201D1E"/>
<path id="Vector_12" d="M186.634 13.7586C185.789 16.6206 183.674 18.7846 179.857 18.7846C174.684 18.7846 171.961 14.6766 171.961 9.61464C171.961 4.75964 174.636 0.340637 179.886 0.340637C183.785 0.340637 186.071 2.51264 186.659 5.51764H185.219C184.406 3.20164 182.902 1.66264 179.809 1.66264C175.366 1.66264 173.506 5.72164 173.506 9.58664C173.506 13.4226 175.338 17.4616 179.912 17.4616C182.831 17.4616 184.306 15.9426 185.194 13.7586H186.634Z" fill="#201D1E"/>
<path id="Vector_13" d="M191.968 8.88161H196.285C199.422 8.88161 200.873 7.70761 200.873 5.36361C200.873 3.17061 199.445 1.92161 196.665 1.92161H191.968V8.88161ZM191.968 10.2046V18.5776H190.504V0.598606H196.982C200.534 0.598606 202.415 2.50461 202.415 5.32861C202.415 7.61761 201.054 9.10361 199.066 9.54161C200.895 9.97561 202.13 11.1776 202.13 14.2376V14.9356C202.13 16.1926 202.03 17.8806 202.362 18.5776H200.9C200.567 17.8066 200.641 16.3706 200.641 14.8216V14.3636C200.641 11.4306 199.776 10.2046 196.346 10.2046H191.968Z" fill="#201D1E"/>
<path id="Vector_14" d="M207.131 9.51056C207.131 13.6326 209.401 17.5106 213.692 17.5106C218.316 17.5106 220.252 13.7286 220.252 9.48656C220.252 5.31656 218.06 1.66556 213.741 1.66556C209.147 1.66556 207.131 5.46456 207.131 9.51056ZM221.795 9.46156C221.795 14.3686 219.167 18.8346 213.613 18.8346C208.541 18.8346 205.587 14.7506 205.587 9.58756C205.587 4.49856 208.447 0.340565 213.794 0.340565C218.733 0.340565 221.795 4.21556 221.795 9.46156Z" fill="#201D1E"/>
<path id="Vector_15" d="M225.828 13.7393C226.364 16.1163 227.95 17.5153 230.885 17.5153C234.148 17.5153 235.398 15.8893 235.398 13.9503C235.398 11.9333 234.5 10.6883 230.563 9.71727C226.738 8.76327 225.104 7.51827 225.104 4.92727C225.104 2.54827 226.839 0.34127 230.7 0.34127C234.673 0.34127 236.347 2.75827 236.579 4.95127H235.087C234.681 3.04327 233.437 1.66027 230.622 1.66027C228.049 1.66027 226.647 2.85527 226.647 4.84327C226.647 6.80527 227.819 7.57027 231.123 8.38927C236.188 9.64727 236.941 11.6743 236.941 13.8393C236.941 16.4993 235.002 18.7843 230.829 18.7843C226.333 18.7843 224.673 16.1723 224.337 13.7393H225.828Z" fill="#201D1E"/>
<path id="Vector_16" d="M241.06 13.7393C241.596 16.1163 243.182 17.5153 246.117 17.5153C249.38 17.5153 250.63 15.8893 250.63 13.9503C250.63 11.9333 249.732 10.6883 245.795 9.71727C241.97 8.76327 240.336 7.51827 240.336 4.92727C240.336 2.54827 242.071 0.34127 245.932 0.34127C249.905 0.34127 251.579 2.75827 251.811 4.95127H250.319C249.913 3.04327 248.669 1.66027 245.854 1.66027C243.281 1.66027 241.879 2.85527 241.879 4.84327C241.879 6.80527 243.051 7.57027 246.355 8.38927C251.42 9.64727 252.173 11.6743 252.173 13.8393C252.173 16.4993 250.234 18.7843 246.061 18.7843C241.565 18.7843 239.905 16.1723 239.569 13.7393H241.06Z" fill="#201D1E"/>
<path id="Vector_17" d="M264.102 18.5776H262.662V0.598602H264.102V18.5776Z" fill="#201D1E"/>
<path id="Vector_18" d="M269.366 18.5777V0.598728H271.48C274.268 4.90673 280.791 14.8907 281.915 16.8437H281.942C281.786 14.2647 281.811 11.6087 281.811 8.67973V0.598728H283.27V18.5777H281.311C278.656 14.4307 272.022 4.02173 270.746 2.04173H270.721C270.849 4.38773 270.824 7.03073 270.824 10.2917V18.5777H269.366Z" fill="#201D1E"/>
<path id="Vector_19" d="M289.971 17.2538H294.281C299.005 17.2538 301.326 13.9308 301.326 9.50779C301.326 5.57379 299.234 1.92179 294.282 1.92179H289.971V17.2538ZM288.531 0.59779H294.515C299.453 0.59779 302.869 4.03979 302.869 9.43179C302.869 14.7978 299.531 18.5778 294.486 18.5778H288.531V0.59779Z" fill="#201D1E"/>
<path id="Vector_20" d="M308.334 0.598209V11.4842C308.334 16.2332 311.011 17.4622 313.54 17.4622C316.529 17.4622 318.746 16.2042 318.746 11.4842V0.598209H320.212V11.4052C320.212 17.0412 317.219 18.7842 313.489 18.7842C309.934 18.7842 306.843 16.8642 306.843 11.6332V0.598209H308.334Z" fill="#201D1E"/>
<path id="Vector_21" d="M324.727 13.7393C325.263 16.1163 326.849 17.5153 329.784 17.5153C333.047 17.5153 334.297 15.8893 334.297 13.9503C334.297 11.9333 333.399 10.6883 329.462 9.71727C325.637 8.76327 324.003 7.51827 324.003 4.92727C324.003 2.54827 325.738 0.34127 329.599 0.34127C333.572 0.34127 335.246 2.75827 335.478 4.95127H333.986C333.58 3.04327 332.336 1.66027 329.521 1.66027C326.948 1.66027 325.546 2.85527 325.546 4.84327C325.546 6.80527 326.718 7.57027 330.022 8.38927C335.087 9.64727 335.84 11.6743 335.84 13.8393C335.84 16.4993 333.901 18.7843 329.728 18.7843C325.232 18.7843 323.572 16.1723 323.236 13.7393H324.727Z" fill="#201D1E"/>
<path id="Vector_22" d="M343.321 1.92318H337.298V0.598179H350.835V1.92318H344.787V18.5772H343.321V1.92318Z" fill="#201D1E"/>
<path id="Vector_23" d="M354.96 8.88161H359.277C362.414 8.88161 363.865 7.70761 363.865 5.36361C363.865 3.17061 362.437 1.92161 359.656 1.92161H354.96V8.88161ZM354.96 10.2046V18.5776H353.496V0.598606H359.974C363.526 0.598606 365.407 2.50461 365.407 5.32861C365.407 7.61761 364.046 9.10361 362.058 9.54161C363.887 9.97561 365.122 11.1776 365.122 14.2376V14.9356C365.122 16.1926 365.022 17.8806 365.354 18.5776H363.892C363.559 17.8066 363.633 16.3706 363.633 14.8216V14.3636C363.633 11.4306 362.768 10.2046 359.338 10.2046H354.96Z" fill="#201D1E"/>
<path id="Vector_24" d="M371.222 18.5776H369.782V0.598602H371.222V18.5776Z" fill="#201D1E"/>
<path id="Vector_25" d="M387.082 9.76542H377.924V17.2524H387.956L387.745 18.5774H376.487V0.598423H387.543V1.92342H377.924V8.44042H387.082V9.76542Z" fill="#201D1E"/>
<path id="Vector_26" d="M391.825 13.7393C392.361 16.1163 393.947 17.5153 396.882 17.5153C400.145 17.5153 401.395 15.8893 401.395 13.9503C401.395 11.9333 400.497 10.6883 396.56 9.71727C392.735 8.76327 391.101 7.51827 391.101 4.92727C391.101 2.54827 392.836 0.34127 396.697 0.34127C400.67 0.34127 402.344 2.75827 402.576 4.95127H401.084C400.678 3.04327 399.434 1.66027 396.619 1.66027C394.046 1.66027 392.644 2.85527 392.644 4.84327C392.644 6.80527 393.816 7.57027 397.12 8.38927C402.185 9.64727 402.938 11.6743 402.938 13.8393C402.938 16.4993 400.999 18.7843 396.826 18.7843C392.33 18.7843 390.67 16.1723 390.334 13.7393H391.825Z" fill="#201D1E"/>
</g>
</svg>
