<svg width="403" height="63" viewBox="0 0 403 63" fill="none" xmlns="http://www.w3.org/2000/svg">
<g id="ventures">
<path id="v" d="M16.22 12.0554L26.945 47.3314L37.67 12.0554H53.8L36.251 61.5114H17.549L0 12.0554H16.22Z" fill="#201D1E"/>
<path id="e" d="M72.326 31.9979H91.294C91.294 26.5899 87.039 23.4879 81.988 23.4879C77.024 23.4879 73.213 26.5029 72.326 31.9979ZM82.165 62.2209C67.629 62.2209 57.17 52.4719 57.17 36.7829C57.17 21.0949 67.452 11.3449 82.165 11.3449C96.612 11.3449 106.804 20.9179 106.804 35.9859C106.804 37.4039 106.716 38.9109 106.539 40.4179H72.237C72.769 46.8869 76.758 49.9019 81.632 49.9019C85.887 49.9019 88.28 47.7729 89.521 45.1149H105.652C103.259 54.7759 94.485 62.2209 82.165 62.2209Z" fill="#201D1E"/>
<path id="n" d="M148.907 34.6561C148.907 27.9201 145.185 24.1971 139.423 24.1971C133.662 24.1971 129.939 27.9201 129.939 34.6561V61.5121H114.783V12.0551H129.939V18.6141C132.953 14.4471 138.271 11.5221 144.919 11.5221C156.353 11.5221 163.974 19.3231 163.974 32.6171V61.5121H148.907V34.6561Z" fill="#201D1E"/>
<path id="t" d="M176.918 24.641H170.891V12.055H176.918V-7.62939e-06H192.074V12.055H202.001V24.641H192.074V44.494C192.074 47.419 193.315 48.659 196.683 48.659H202.09V61.512H194.379C184.097 61.512 176.918 57.169 176.918 44.317V24.641Z" fill="#201D1E"/>
<path id="u" d="M259.348 61.5117H244.192V54.7757C241.178 59.0307 235.86 62.0437 229.213 62.0437C217.779 62.0437 210.068 54.1547 210.068 40.9497V12.0557H225.135V38.9107C225.135 45.6467 228.946 49.3697 234.619 49.3697C240.47 49.3697 244.192 45.6467 244.192 38.9107V12.0557H259.348V61.5117Z" fill="#201D1E"/>
<path id="r" d="M285.407 61.5117H270.251V12.0557H285.407V20.2967C288.864 15.0677 294.27 11.5217 300.918 11.5217V27.5657H296.752C289.573 27.5657 285.407 30.0467 285.407 38.5567V61.5117Z" fill="#201D1E"/>
<path id="e_2" d="M320.33 31.9979H339.298C339.298 26.5899 335.043 23.4879 329.992 23.4879C325.028 23.4879 321.217 26.5029 320.33 31.9979ZM330.169 62.2209C315.633 62.2209 305.174 52.4719 305.174 36.7829C305.174 21.0949 315.456 11.3449 330.169 11.3449C344.616 11.3449 354.808 20.9179 354.808 35.9859C354.808 37.4039 354.72 38.9109 354.543 40.4179H320.241C320.773 46.8869 324.762 49.9019 329.636 49.9019C333.891 49.9019 336.284 47.7729 337.525 45.1149H353.656C351.263 54.7759 342.489 62.2209 330.169 62.2209Z" fill="#201D1E"/>
<path id="S" d="M382.908 62.2205C369.701 62.2205 360.838 54.8655 360.129 45.2925H375.108C375.462 48.7485 378.565 51.0525 382.731 51.0525C386.63 51.0525 388.669 49.2805 388.669 47.0645C388.669 39.0885 361.725 44.8485 361.725 26.6795C361.725 18.2595 368.904 11.3445 381.845 11.3445C394.608 11.3445 401.699 18.4365 402.673 28.1855H388.669C388.226 24.8185 385.656 22.6025 381.401 22.6025C377.856 22.6025 375.906 24.0195 375.906 26.4135C375.906 34.3015 402.673 28.7165 402.939 47.1535C402.939 55.7515 395.316 62.2205 382.908 62.2205Z" fill="#201D1E"/>
</g>
</svg>
